<mxfile host="app.diagrams.net" modified="2024-02-04T14:52:23.085Z" agent="Mozilla/5.0 (Windows NT 10.0; Win64; x64) AppleWebKit/537.36 (KHTML, like Gecko) Chrome/121.0.0.0 Safari/537.36" etag="6WO5Zu_415tpt6O1C4S3" version="23.1.1" type="device">
  <diagram name="Page-1" id="_LCD2cptM7VCx5H-wn7T">
    <mxGraphModel dx="2514" dy="1337" grid="1" gridSize="10" guides="1" tooltips="1" connect="1" arrows="1" fold="1" page="1" pageScale="1" pageWidth="1654" pageHeight="1169" background="#ffffff" math="0" shadow="0">
      <root>
        <mxCell id="0" />
        <mxCell id="1" parent="0" />
        <mxCell id="4QteENgU0oDEql0NX7ve-3" value="Product" style="rounded=0;whiteSpace=wrap;html=1;labelBackgroundColor=default;fontSize=17;" parent="1" vertex="1">
          <mxGeometry x="730" y="860" width="120" height="60" as="geometry" />
        </mxCell>
        <mxCell id="4QteENgU0oDEql0NX7ve-10" value="Quntity" style="ellipse;whiteSpace=wrap;html=1;labelBackgroundColor=default;fontSize=17;" parent="1" vertex="1">
          <mxGeometry x="947" y="890" width="120" height="50" as="geometry" />
        </mxCell>
        <mxCell id="4QteENgU0oDEql0NX7ve-11" value="Description" style="ellipse;whiteSpace=wrap;html=1;labelBackgroundColor=default;fontSize=17;" parent="1" vertex="1">
          <mxGeometry x="500" y="870" width="120" height="50" as="geometry" />
        </mxCell>
        <mxCell id="4QteENgU0oDEql0NX7ve-12" value="Purchase Price" style="ellipse;whiteSpace=wrap;html=1;labelBackgroundColor=default;fontSize=17;" parent="1" vertex="1">
          <mxGeometry x="810" y="960" width="120" height="50" as="geometry" />
        </mxCell>
        <mxCell id="4QteENgU0oDEql0NX7ve-13" value="&lt;u style=&quot;font-size: 17px;&quot;&gt;Image URL&lt;/u&gt;" style="ellipse;whiteSpace=wrap;html=1;labelBackgroundColor=default;fontSize=17;" parent="1" vertex="1">
          <mxGeometry x="530" y="980" width="120" height="50" as="geometry" />
        </mxCell>
        <mxCell id="4QteENgU0oDEql0NX7ve-14" value="Product Name" style="ellipse;whiteSpace=wrap;html=1;labelBackgroundColor=default;fontSize=17;" parent="1" vertex="1">
          <mxGeometry x="680" y="1000" width="120" height="50" as="geometry" />
        </mxCell>
        <mxCell id="4QteENgU0oDEql0NX7ve-18" value="Selling Price" style="ellipse;whiteSpace=wrap;html=1;labelBackgroundColor=default;fontSize=17;" parent="1" vertex="1">
          <mxGeometry x="920" y="810" width="120" height="50" as="geometry" />
        </mxCell>
        <mxCell id="4QteENgU0oDEql0NX7ve-20" value="&lt;u&gt;Id&lt;/u&gt;" style="ellipse;whiteSpace=wrap;html=1;labelBackgroundColor=default;fontSize=17;" parent="1" vertex="1">
          <mxGeometry x="590" y="790" width="120" height="50" as="geometry" />
        </mxCell>
        <mxCell id="4QteENgU0oDEql0NX7ve-23" value="Feedback" style="rounded=0;whiteSpace=wrap;html=1;labelBackgroundColor=default;fontSize=17;" parent="1" vertex="1">
          <mxGeometry x="140" y="350" width="120" height="60" as="geometry" />
        </mxCell>
        <mxCell id="4QteENgU0oDEql0NX7ve-24" value="User" style="rounded=0;whiteSpace=wrap;html=1;labelBackgroundColor=default;fontSize=17;" parent="1" vertex="1">
          <mxGeometry x="690" y="380" width="120" height="60" as="geometry" />
        </mxCell>
        <mxCell id="4QteENgU0oDEql0NX7ve-25" value="User_Name" style="ellipse;whiteSpace=wrap;html=1;labelBackgroundColor=default;fontSize=17;" parent="1" vertex="1">
          <mxGeometry x="460" y="260" width="260" height="70" as="geometry" />
        </mxCell>
        <mxCell id="4QteENgU0oDEql0NX7ve-26" value="Email" style="ellipse;whiteSpace=wrap;html=1;labelBackgroundColor=default;fontSize=17;" parent="1" vertex="1">
          <mxGeometry x="830" y="300" width="120" height="50" as="geometry" />
        </mxCell>
        <mxCell id="4QteENgU0oDEql0NX7ve-27" value="Phone No" style="ellipse;whiteSpace=wrap;html=1;labelBackgroundColor=default;fontSize=17;" parent="1" vertex="1">
          <mxGeometry x="827" y="550" width="120" height="50" as="geometry" />
        </mxCell>
        <mxCell id="4QteENgU0oDEql0NX7ve-28" value="Password" style="ellipse;whiteSpace=wrap;html=1;labelBackgroundColor=default;fontSize=17;" parent="1" vertex="1">
          <mxGeometry x="550" y="500" width="120" height="50" as="geometry" />
        </mxCell>
        <mxCell id="4QteENgU0oDEql0NX7ve-29" value="&lt;u style=&quot;font-size: 17px;&quot;&gt;User id&lt;/u&gt;" style="ellipse;whiteSpace=wrap;html=1;labelBackgroundColor=default;fontSize=17;" parent="1" vertex="1">
          <mxGeometry x="870" y="440" width="120" height="50" as="geometry" />
        </mxCell>
        <mxCell id="4QteENgU0oDEql0NX7ve-30" value="Name" style="ellipse;whiteSpace=wrap;html=1;labelBackgroundColor=default;fontSize=17;" parent="1" vertex="1">
          <mxGeometry x="30" y="210" width="120" height="50" as="geometry" />
        </mxCell>
        <mxCell id="4QteENgU0oDEql0NX7ve-31" value="Email" style="ellipse;whiteSpace=wrap;html=1;fontSize=17;" parent="1" vertex="1">
          <mxGeometry x="10" y="620" width="120" height="50" as="geometry" />
        </mxCell>
        <mxCell id="4QteENgU0oDEql0NX7ve-32" value="User_id" style="ellipse;whiteSpace=wrap;html=1;fontSize=17;" parent="1" vertex="1">
          <mxGeometry y="480" width="120" height="50" as="geometry" />
        </mxCell>
        <mxCell id="4QteENgU0oDEql0NX7ve-34" value="Feedback" style="ellipse;whiteSpace=wrap;html=1;labelBackgroundColor=default;fontSize=17;" parent="1" vertex="1">
          <mxGeometry x="200" y="550" width="120" height="50" as="geometry" />
        </mxCell>
        <mxCell id="4QteENgU0oDEql0NX7ve-35" value="Order_Product" style="rounded=0;whiteSpace=wrap;html=1;labelBackgroundColor=default;fontSize=17;" parent="1" vertex="1">
          <mxGeometry x="1250" y="380" width="120" height="60" as="geometry" />
        </mxCell>
        <mxCell id="4QteENgU0oDEql0NX7ve-36" value="&lt;u style=&quot;font-size: 17px;&quot;&gt;User_id&lt;/u&gt;" style="ellipse;whiteSpace=wrap;html=1;labelBackgroundColor=default;fontSize=17;" parent="1" vertex="1">
          <mxGeometry x="1150" y="535" width="120" height="50" as="geometry" />
        </mxCell>
        <mxCell id="4QteENgU0oDEql0NX7ve-38" value="Invoice_No" style="ellipse;whiteSpace=wrap;html=1;labelBackgroundColor=default;fontSize=17;" parent="1" vertex="1">
          <mxGeometry x="1410" y="280" width="120" height="50" as="geometry" />
        </mxCell>
        <mxCell id="4QteENgU0oDEql0NX7ve-39" value="Name" style="ellipse;whiteSpace=wrap;html=1;labelBackgroundColor=default;fontSize=17;" parent="1" vertex="1">
          <mxGeometry x="1480" y="380" width="120" height="50" as="geometry" />
        </mxCell>
        <mxCell id="4QteENgU0oDEql0NX7ve-40" value="Date" style="ellipse;whiteSpace=wrap;html=1;labelBackgroundColor=default;fontSize=17;" parent="1" vertex="1">
          <mxGeometry x="1320" y="220" width="120" height="50" as="geometry" />
        </mxCell>
        <mxCell id="4QteENgU0oDEql0NX7ve-41" value="&lt;u&gt;Id&lt;/u&gt;" style="ellipse;whiteSpace=wrap;html=1;labelBackgroundColor=default;fontSize=17;" parent="1" vertex="1">
          <mxGeometry x="1140" y="240" width="120" height="50" as="geometry" />
        </mxCell>
        <mxCell id="4QteENgU0oDEql0NX7ve-42" value="Price" style="ellipse;whiteSpace=wrap;html=1;labelBackgroundColor=default;fontSize=17;" parent="1" vertex="1">
          <mxGeometry x="1460" y="480" width="120" height="50" as="geometry" />
        </mxCell>
        <mxCell id="4QteENgU0oDEql0NX7ve-43" value="Qunatity" style="ellipse;whiteSpace=wrap;html=1;labelBackgroundColor=default;fontSize=17;" parent="1" vertex="1">
          <mxGeometry x="1310" y="500" width="120" height="50" as="geometry" />
        </mxCell>
        <mxCell id="4QteENgU0oDEql0NX7ve-44" value="&lt;u style=&quot;font-size: 17px;&quot;&gt;Feedback Id&lt;/u&gt;" style="ellipse;whiteSpace=wrap;html=1;labelBackgroundColor=default;fontSize=17;" parent="1" vertex="1">
          <mxGeometry x="140" y="130" width="120" height="50" as="geometry" />
        </mxCell>
        <mxCell id="4QteENgU0oDEql0NX7ve-54" value="" style="endArrow=none;html=1;rounded=0;entryX=0;entryY=0.5;entryDx=0;entryDy=0;exitX=1;exitY=0.5;exitDx=0;exitDy=0;labelBackgroundColor=default;fontSize=17;" parent="1" source="4QteENgU0oDEql0NX7ve-11" target="4QteENgU0oDEql0NX7ve-3" edge="1">
          <mxGeometry width="50" height="50" relative="1" as="geometry">
            <mxPoint x="220" y="670" as="sourcePoint" />
            <mxPoint x="230" y="590" as="targetPoint" />
          </mxGeometry>
        </mxCell>
        <mxCell id="4QteENgU0oDEql0NX7ve-55" value="" style="endArrow=none;html=1;rounded=0;entryX=0;entryY=1;entryDx=0;entryDy=0;exitX=0.5;exitY=0;exitDx=0;exitDy=0;labelBackgroundColor=default;fontSize=17;" parent="1" source="4QteENgU0oDEql0NX7ve-13" target="4QteENgU0oDEql0NX7ve-3" edge="1">
          <mxGeometry width="50" height="50" relative="1" as="geometry">
            <mxPoint x="510" y="675" as="sourcePoint" />
            <mxPoint x="550" y="665" as="targetPoint" />
          </mxGeometry>
        </mxCell>
        <mxCell id="4QteENgU0oDEql0NX7ve-56" value="" style="endArrow=none;html=1;rounded=0;entryX=0.5;entryY=1;entryDx=0;entryDy=0;exitX=0.5;exitY=0;exitDx=0;exitDy=0;labelBackgroundColor=default;fontSize=17;" parent="1" source="4QteENgU0oDEql0NX7ve-14" target="4QteENgU0oDEql0NX7ve-3" edge="1">
          <mxGeometry width="50" height="50" relative="1" as="geometry">
            <mxPoint x="475" y="750" as="sourcePoint" />
            <mxPoint x="550" y="695" as="targetPoint" />
          </mxGeometry>
        </mxCell>
        <mxCell id="4QteENgU0oDEql0NX7ve-57" value="" style="endArrow=none;html=1;rounded=0;entryX=0.75;entryY=1;entryDx=0;entryDy=0;labelBackgroundColor=default;fontSize=17;" parent="1" source="4QteENgU0oDEql0NX7ve-12" target="4QteENgU0oDEql0NX7ve-3" edge="1">
          <mxGeometry width="50" height="50" relative="1" as="geometry">
            <mxPoint x="620" y="760" as="sourcePoint" />
            <mxPoint x="610" y="695" as="targetPoint" />
          </mxGeometry>
        </mxCell>
        <mxCell id="4QteENgU0oDEql0NX7ve-58" value="" style="endArrow=none;html=1;rounded=0;entryX=1;entryY=0.5;entryDx=0;entryDy=0;exitX=0;exitY=0.5;exitDx=0;exitDy=0;labelBackgroundColor=default;fontSize=17;" parent="1" source="4QteENgU0oDEql0NX7ve-10" target="4QteENgU0oDEql0NX7ve-3" edge="1">
          <mxGeometry width="50" height="50" relative="1" as="geometry">
            <mxPoint x="745" y="755" as="sourcePoint" />
            <mxPoint x="640" y="695" as="targetPoint" />
          </mxGeometry>
        </mxCell>
        <mxCell id="4QteENgU0oDEql0NX7ve-59" value="" style="endArrow=none;html=1;rounded=0;entryX=0.344;entryY=-0.071;entryDx=0;entryDy=0;entryPerimeter=0;labelBackgroundColor=default;fontSize=17;" parent="1" source="4QteENgU0oDEql0NX7ve-20" target="4QteENgU0oDEql0NX7ve-3" edge="1">
          <mxGeometry width="50" height="50" relative="1" as="geometry">
            <mxPoint x="510" y="675" as="sourcePoint" />
            <mxPoint x="550" y="665" as="targetPoint" />
          </mxGeometry>
        </mxCell>
        <mxCell id="4QteENgU0oDEql0NX7ve-66" value="" style="endArrow=none;html=1;rounded=0;entryX=0.5;entryY=0;entryDx=0;entryDy=0;exitX=0.5;exitY=1;exitDx=0;exitDy=0;labelBackgroundColor=default;fontSize=17;" parent="1" source="4QteENgU0oDEql0NX7ve-44" target="4QteENgU0oDEql0NX7ve-23" edge="1">
          <mxGeometry width="50" height="50" relative="1" as="geometry">
            <mxPoint x="670" y="330" as="sourcePoint" />
            <mxPoint x="720" y="280" as="targetPoint" />
          </mxGeometry>
        </mxCell>
        <mxCell id="4QteENgU0oDEql0NX7ve-67" value="" style="endArrow=none;html=1;rounded=0;entryX=0;entryY=0.25;entryDx=0;entryDy=0;exitX=0.5;exitY=0;exitDx=0;exitDy=0;labelBackgroundColor=default;fontSize=17;" parent="1" source="4QteENgU0oDEql0NX7ve-32" target="4QteENgU0oDEql0NX7ve-23" edge="1">
          <mxGeometry width="50" height="50" relative="1" as="geometry">
            <mxPoint x="220" y="220" as="sourcePoint" />
            <mxPoint x="210" y="295" as="targetPoint" />
          </mxGeometry>
        </mxCell>
        <mxCell id="4QteENgU0oDEql0NX7ve-68" value="" style="endArrow=none;html=1;rounded=0;entryX=0;entryY=0.25;entryDx=0;entryDy=0;labelBackgroundColor=default;fontSize=17;" parent="1" target="4QteENgU0oDEql0NX7ve-23" edge="1">
          <mxGeometry width="50" height="50" relative="1" as="geometry">
            <mxPoint x="90" y="260" as="sourcePoint" />
            <mxPoint x="140" y="320" as="targetPoint" />
          </mxGeometry>
        </mxCell>
        <mxCell id="4QteENgU0oDEql0NX7ve-69" value="" style="endArrow=none;html=1;rounded=0;entryX=0.25;entryY=1;entryDx=0;entryDy=0;exitX=0.706;exitY=-0.007;exitDx=0;exitDy=0;exitPerimeter=0;labelBackgroundColor=default;fontSize=17;" parent="1" source="4QteENgU0oDEql0NX7ve-31" target="4QteENgU0oDEql0NX7ve-23" edge="1">
          <mxGeometry width="50" height="50" relative="1" as="geometry">
            <mxPoint x="240" y="240" as="sourcePoint" />
            <mxPoint x="230" y="315" as="targetPoint" />
          </mxGeometry>
        </mxCell>
        <mxCell id="4QteENgU0oDEql0NX7ve-70" value="" style="endArrow=none;html=1;rounded=0;entryX=0.5;entryY=1;entryDx=0;entryDy=0;exitX=0.5;exitY=0;exitDx=0;exitDy=0;labelBackgroundColor=default;fontSize=17;" parent="1" source="4QteENgU0oDEql0NX7ve-34" target="4QteENgU0oDEql0NX7ve-23" edge="1">
          <mxGeometry width="50" height="50" relative="1" as="geometry">
            <mxPoint x="210" y="410" as="sourcePoint" />
            <mxPoint x="240" y="325" as="targetPoint" />
          </mxGeometry>
        </mxCell>
        <mxCell id="4QteENgU0oDEql0NX7ve-73" value="" style="endArrow=none;html=1;rounded=0;exitX=0.5;exitY=1;exitDx=0;exitDy=0;labelBackgroundColor=default;fontSize=17;" parent="1" source="4QteENgU0oDEql0NX7ve-26" edge="1">
          <mxGeometry width="50" height="50" relative="1" as="geometry">
            <mxPoint x="750" y="340" as="sourcePoint" />
            <mxPoint x="810" y="400" as="targetPoint" />
          </mxGeometry>
        </mxCell>
        <mxCell id="4QteENgU0oDEql0NX7ve-74" value="" style="endArrow=none;html=1;rounded=0;entryX=0.327;entryY=-0.062;entryDx=0;entryDy=0;exitX=0.5;exitY=1;exitDx=0;exitDy=0;entryPerimeter=0;labelBackgroundColor=default;fontSize=17;" parent="1" source="4QteENgU0oDEql0NX7ve-24" target="4QteENgU0oDEql0NX7ve-27" edge="1">
          <mxGeometry width="50" height="50" relative="1" as="geometry">
            <mxPoint x="260" y="260" as="sourcePoint" />
            <mxPoint x="250" y="335" as="targetPoint" />
          </mxGeometry>
        </mxCell>
        <mxCell id="4QteENgU0oDEql0NX7ve-75" value="" style="endArrow=none;html=1;rounded=0;entryX=0;entryY=0.5;entryDx=0;entryDy=0;exitX=0.5;exitY=0;exitDx=0;exitDy=0;labelBackgroundColor=default;fontSize=17;" parent="1" source="4QteENgU0oDEql0NX7ve-28" target="4QteENgU0oDEql0NX7ve-24" edge="1">
          <mxGeometry width="50" height="50" relative="1" as="geometry">
            <mxPoint x="670" y="310" as="sourcePoint" />
            <mxPoint x="560" y="330" as="targetPoint" />
          </mxGeometry>
        </mxCell>
        <mxCell id="4QteENgU0oDEql0NX7ve-76" value="" style="endArrow=none;html=1;rounded=0;entryX=1;entryY=0.5;entryDx=0;entryDy=0;exitX=0;exitY=0.5;exitDx=0;exitDy=0;labelBackgroundColor=default;fontSize=17;" parent="1" source="4QteENgU0oDEql0NX7ve-29" target="4QteENgU0oDEql0NX7ve-24" edge="1">
          <mxGeometry width="50" height="50" relative="1" as="geometry">
            <mxPoint x="680" y="320" as="sourcePoint" />
            <mxPoint x="570" y="340" as="targetPoint" />
          </mxGeometry>
        </mxCell>
        <mxCell id="4QteENgU0oDEql0NX7ve-77" value="" style="endArrow=none;html=1;rounded=0;entryX=0.5;entryY=0;entryDx=0;entryDy=0;exitX=0.5;exitY=1;exitDx=0;exitDy=0;labelBackgroundColor=default;fontSize=17;" parent="1" source="4QteENgU0oDEql0NX7ve-25" target="4QteENgU0oDEql0NX7ve-24" edge="1">
          <mxGeometry width="50" height="50" relative="1" as="geometry">
            <mxPoint x="640" y="330" as="sourcePoint" />
            <mxPoint x="580" y="350" as="targetPoint" />
          </mxGeometry>
        </mxCell>
        <mxCell id="4QteENgU0oDEql0NX7ve-81" value="" style="endArrow=none;html=1;rounded=0;entryX=0.5;entryY=0;entryDx=0;entryDy=0;exitX=0.5;exitY=1;exitDx=0;exitDy=0;labelBackgroundColor=default;fontSize=17;" parent="1" source="4QteENgU0oDEql0NX7ve-41" target="4QteENgU0oDEql0NX7ve-35" edge="1">
          <mxGeometry width="50" height="50" relative="1" as="geometry">
            <mxPoint x="1190" y="410" as="sourcePoint" />
            <mxPoint x="1240" y="360" as="targetPoint" />
          </mxGeometry>
        </mxCell>
        <mxCell id="4QteENgU0oDEql0NX7ve-82" value="" style="endArrow=none;html=1;rounded=0;entryX=0.5;entryY=1;entryDx=0;entryDy=0;exitX=0.5;exitY=0;exitDx=0;exitDy=0;labelBackgroundColor=default;fontSize=17;" parent="1" source="4QteENgU0oDEql0NX7ve-35" target="4QteENgU0oDEql0NX7ve-40" edge="1">
          <mxGeometry width="50" height="50" relative="1" as="geometry">
            <mxPoint x="1210" y="300" as="sourcePoint" />
            <mxPoint x="1320" y="390" as="targetPoint" />
          </mxGeometry>
        </mxCell>
        <mxCell id="4QteENgU0oDEql0NX7ve-83" value="" style="endArrow=none;html=1;rounded=0;entryX=0.5;entryY=1;entryDx=0;entryDy=0;exitX=1;exitY=0.25;exitDx=0;exitDy=0;labelBackgroundColor=default;fontSize=17;" parent="1" source="4QteENgU0oDEql0NX7ve-35" target="4QteENgU0oDEql0NX7ve-38" edge="1">
          <mxGeometry width="50" height="50" relative="1" as="geometry">
            <mxPoint x="1320" y="390" as="sourcePoint" />
            <mxPoint x="1390" y="280" as="targetPoint" />
          </mxGeometry>
        </mxCell>
        <mxCell id="4QteENgU0oDEql0NX7ve-84" value="" style="endArrow=none;html=1;rounded=0;entryX=0;entryY=0.5;entryDx=0;entryDy=0;exitX=1;exitY=0.5;exitDx=0;exitDy=0;labelBackgroundColor=default;fontSize=17;" parent="1" source="4QteENgU0oDEql0NX7ve-35" target="4QteENgU0oDEql0NX7ve-39" edge="1">
          <mxGeometry width="50" height="50" relative="1" as="geometry">
            <mxPoint x="1380" y="405" as="sourcePoint" />
            <mxPoint x="1480" y="340" as="targetPoint" />
          </mxGeometry>
        </mxCell>
        <mxCell id="4QteENgU0oDEql0NX7ve-85" value="" style="endArrow=none;html=1;rounded=0;entryX=0.358;entryY=-0.073;entryDx=0;entryDy=0;exitX=0.886;exitY=0.983;exitDx=0;exitDy=0;entryPerimeter=0;exitPerimeter=0;labelBackgroundColor=default;fontSize=17;" parent="1" source="4QteENgU0oDEql0NX7ve-35" target="4QteENgU0oDEql0NX7ve-42" edge="1">
          <mxGeometry width="50" height="50" relative="1" as="geometry">
            <mxPoint x="1380" y="420" as="sourcePoint" />
            <mxPoint x="1490" y="415" as="targetPoint" />
          </mxGeometry>
        </mxCell>
        <mxCell id="4QteENgU0oDEql0NX7ve-86" value="" style="endArrow=none;html=1;rounded=0;entryX=0.408;entryY=-0.02;entryDx=0;entryDy=0;exitX=0.5;exitY=1;exitDx=0;exitDy=0;entryPerimeter=0;labelBackgroundColor=default;fontSize=17;" parent="1" source="4QteENgU0oDEql0NX7ve-35" target="4QteENgU0oDEql0NX7ve-43" edge="1">
          <mxGeometry width="50" height="50" relative="1" as="geometry">
            <mxPoint x="1390" y="430" as="sourcePoint" />
            <mxPoint x="1500" y="425" as="targetPoint" />
          </mxGeometry>
        </mxCell>
        <mxCell id="4QteENgU0oDEql0NX7ve-87" value="" style="endArrow=none;html=1;rounded=0;entryX=0.5;entryY=0;entryDx=0;entryDy=0;exitX=0.25;exitY=1;exitDx=0;exitDy=0;labelBackgroundColor=default;fontSize=17;" parent="1" source="4QteENgU0oDEql0NX7ve-35" target="4QteENgU0oDEql0NX7ve-36" edge="1">
          <mxGeometry width="50" height="50" relative="1" as="geometry">
            <mxPoint x="1400" y="440" as="sourcePoint" />
            <mxPoint x="1510" y="435" as="targetPoint" />
          </mxGeometry>
        </mxCell>
        <mxCell id="4QteENgU0oDEql0NX7ve-88" value="Provide" style="rhombus;whiteSpace=wrap;html=1;labelBackgroundColor=default;fontSize=17;" parent="1" vertex="1">
          <mxGeometry x="420" y="350" width="80" height="80" as="geometry" />
        </mxCell>
        <mxCell id="4QteENgU0oDEql0NX7ve-89" value="Make" style="rhombus;whiteSpace=wrap;html=1;labelBackgroundColor=default;fontSize=17;" parent="1" vertex="1">
          <mxGeometry x="1020" y="350" width="80" height="80" as="geometry" />
        </mxCell>
        <mxCell id="4QteENgU0oDEql0NX7ve-90" value="Have" style="rhombus;whiteSpace=wrap;html=1;labelBackgroundColor=default;fontSize=17;" parent="1" vertex="1">
          <mxGeometry x="700" y="530" width="80" height="80" as="geometry" />
        </mxCell>
        <mxCell id="4QteENgU0oDEql0NX7ve-91" value="" style="endArrow=none;html=1;rounded=0;entryX=0;entryY=0.5;entryDx=0;entryDy=0;exitX=1;exitY=0.5;exitDx=0;exitDy=0;labelBackgroundColor=default;fontSize=17;" parent="1" source="4QteENgU0oDEql0NX7ve-23" target="4QteENgU0oDEql0NX7ve-88" edge="1">
          <mxGeometry width="50" height="50" relative="1" as="geometry">
            <mxPoint x="920" y="610" as="sourcePoint" />
            <mxPoint x="970" y="560" as="targetPoint" />
          </mxGeometry>
        </mxCell>
        <mxCell id="4QteENgU0oDEql0NX7ve-92" value="" style="endArrow=none;html=1;rounded=0;entryX=1;entryY=0.5;entryDx=0;entryDy=0;exitX=0;exitY=0.5;exitDx=0;exitDy=0;labelBackgroundColor=default;fontSize=17;" parent="1" source="4QteENgU0oDEql0NX7ve-24" target="4QteENgU0oDEql0NX7ve-88" edge="1">
          <mxGeometry width="50" height="50" relative="1" as="geometry">
            <mxPoint x="270" y="390" as="sourcePoint" />
            <mxPoint x="430" y="400" as="targetPoint" />
          </mxGeometry>
        </mxCell>
        <mxCell id="4QteENgU0oDEql0NX7ve-93" value="" style="endArrow=none;html=1;rounded=0;entryX=0;entryY=0.5;entryDx=0;entryDy=0;labelBackgroundColor=default;fontSize=17;" parent="1" target="4QteENgU0oDEql0NX7ve-89" edge="1">
          <mxGeometry width="50" height="50" relative="1" as="geometry">
            <mxPoint x="810" y="400" as="sourcePoint" />
            <mxPoint x="440" y="410" as="targetPoint" />
          </mxGeometry>
        </mxCell>
        <mxCell id="4QteENgU0oDEql0NX7ve-94" value="" style="endArrow=none;html=1;rounded=0;entryX=0;entryY=0.5;entryDx=0;entryDy=0;exitX=1;exitY=0.5;exitDx=0;exitDy=0;labelBackgroundColor=default;fontSize=17;" parent="1" source="4QteENgU0oDEql0NX7ve-89" target="4QteENgU0oDEql0NX7ve-35" edge="1">
          <mxGeometry width="50" height="50" relative="1" as="geometry">
            <mxPoint x="820" y="405" as="sourcePoint" />
            <mxPoint x="1030" y="400" as="targetPoint" />
          </mxGeometry>
        </mxCell>
        <mxCell id="4QteENgU0oDEql0NX7ve-95" value="" style="endArrow=none;html=1;rounded=0;entryX=0.5;entryY=1;entryDx=0;entryDy=0;exitX=0.75;exitY=0;exitDx=0;exitDy=0;labelBackgroundColor=default;fontSize=17;" parent="1" source="4QteENgU0oDEql0NX7ve-3" target="4QteENgU0oDEql0NX7ve-90" edge="1">
          <mxGeometry width="50" height="50" relative="1" as="geometry">
            <mxPoint x="827" y="690" as="sourcePoint" />
            <mxPoint x="970" y="560" as="targetPoint" />
          </mxGeometry>
        </mxCell>
        <mxCell id="4QteENgU0oDEql0NX7ve-96" value="" style="endArrow=none;html=1;rounded=0;entryX=0.5;entryY=0;entryDx=0;entryDy=0;exitX=0.25;exitY=1;exitDx=0;exitDy=0;labelBackgroundColor=default;fontSize=17;" parent="1" source="4QteENgU0oDEql0NX7ve-24" target="4QteENgU0oDEql0NX7ve-90" edge="1">
          <mxGeometry width="50" height="50" relative="1" as="geometry">
            <mxPoint x="830" y="415" as="sourcePoint" />
            <mxPoint x="1040" y="410" as="targetPoint" />
          </mxGeometry>
        </mxCell>
        <mxCell id="4QteENgU0oDEql0NX7ve-97" value="Admin" style="rounded=0;whiteSpace=wrap;html=1;labelBackgroundColor=default;fontSize=17;" parent="1" vertex="1">
          <mxGeometry x="710" y="30" width="120" height="60" as="geometry" />
        </mxCell>
        <mxCell id="4QteENgU0oDEql0NX7ve-98" value="Manage" style="rhombus;whiteSpace=wrap;html=1;labelBackgroundColor=default;fontSize=17;" parent="1" vertex="1">
          <mxGeometry x="730" y="170" width="80" height="80" as="geometry" />
        </mxCell>
        <mxCell id="4QteENgU0oDEql0NX7ve-99" value="" style="endArrow=none;html=1;rounded=0;exitX=0.5;exitY=0;exitDx=0;exitDy=0;entryX=0.5;entryY=1;entryDx=0;entryDy=0;labelBackgroundColor=default;fontSize=17;" parent="1" source="4QteENgU0oDEql0NX7ve-24" target="4QteENgU0oDEql0NX7ve-98" edge="1">
          <mxGeometry width="50" height="50" relative="1" as="geometry">
            <mxPoint x="920" y="340" as="sourcePoint" />
            <mxPoint x="970" y="290" as="targetPoint" />
          </mxGeometry>
        </mxCell>
        <mxCell id="4QteENgU0oDEql0NX7ve-100" value="" style="endArrow=none;html=1;rounded=0;exitX=0.5;exitY=0;exitDx=0;exitDy=0;entryX=0.5;entryY=1;entryDx=0;entryDy=0;labelBackgroundColor=default;fontSize=17;" parent="1" source="4QteENgU0oDEql0NX7ve-98" target="4QteENgU0oDEql0NX7ve-97" edge="1">
          <mxGeometry width="50" height="50" relative="1" as="geometry">
            <mxPoint x="760" y="390" as="sourcePoint" />
            <mxPoint x="780" y="260" as="targetPoint" />
          </mxGeometry>
        </mxCell>
        <mxCell id="4QteENgU0oDEql0NX7ve-102" value="Email" style="ellipse;whiteSpace=wrap;html=1;labelBackgroundColor=default;fontSize=17;" parent="1" vertex="1">
          <mxGeometry x="510" y="20" width="120" height="60" as="geometry" />
        </mxCell>
        <mxCell id="4QteENgU0oDEql0NX7ve-103" value="Password" style="ellipse;whiteSpace=wrap;html=1;labelBackgroundColor=default;fontSize=17;" parent="1" vertex="1">
          <mxGeometry x="550" y="125" width="120" height="60" as="geometry" />
        </mxCell>
        <mxCell id="4QteENgU0oDEql0NX7ve-104" value="&lt;u&gt;User_Id&lt;/u&gt;" style="ellipse;whiteSpace=wrap;html=1;labelBackgroundColor=default;fontSize=17;" parent="1" vertex="1">
          <mxGeometry x="887" y="110" width="120" height="60" as="geometry" />
        </mxCell>
        <mxCell id="4QteENgU0oDEql0NX7ve-105" value="Phone No" style="ellipse;whiteSpace=wrap;html=1;labelBackgroundColor=default;fontSize=17;" parent="1" vertex="1">
          <mxGeometry x="930" y="10" width="120" height="60" as="geometry" />
        </mxCell>
        <mxCell id="4QteENgU0oDEql0NX7ve-106" value="" style="endArrow=none;html=1;rounded=0;entryX=0;entryY=0.5;entryDx=0;entryDy=0;labelBackgroundColor=default;fontSize=17;" parent="1" source="4QteENgU0oDEql0NX7ve-102" target="4QteENgU0oDEql0NX7ve-97" edge="1">
          <mxGeometry width="50" height="50" relative="1" as="geometry">
            <mxPoint x="900" y="240" as="sourcePoint" />
            <mxPoint x="950" y="190" as="targetPoint" />
          </mxGeometry>
        </mxCell>
        <mxCell id="4QteENgU0oDEql0NX7ve-107" value="" style="endArrow=none;html=1;rounded=0;entryX=0;entryY=0.75;entryDx=0;entryDy=0;exitX=0.5;exitY=0;exitDx=0;exitDy=0;labelBackgroundColor=default;fontSize=17;" parent="1" source="4QteENgU0oDEql0NX7ve-103" target="4QteENgU0oDEql0NX7ve-97" edge="1">
          <mxGeometry width="50" height="50" relative="1" as="geometry">
            <mxPoint x="639" y="64" as="sourcePoint" />
            <mxPoint x="720" y="70" as="targetPoint" />
          </mxGeometry>
        </mxCell>
        <mxCell id="4QteENgU0oDEql0NX7ve-108" value="" style="endArrow=none;html=1;rounded=0;entryX=-0.017;entryY=0.383;entryDx=0;entryDy=0;entryPerimeter=0;exitX=0.75;exitY=1;exitDx=0;exitDy=0;labelBackgroundColor=default;fontSize=17;" parent="1" source="4QteENgU0oDEql0NX7ve-97" target="4QteENgU0oDEql0NX7ve-104" edge="1">
          <mxGeometry width="50" height="50" relative="1" as="geometry">
            <mxPoint x="649" y="74" as="sourcePoint" />
            <mxPoint x="730" y="80" as="targetPoint" />
          </mxGeometry>
        </mxCell>
        <mxCell id="4QteENgU0oDEql0NX7ve-109" value="" style="endArrow=none;html=1;rounded=0;entryX=0;entryY=0.5;entryDx=0;entryDy=0;exitX=1;exitY=0.5;exitDx=0;exitDy=0;labelBackgroundColor=default;fontSize=17;" parent="1" source="4QteENgU0oDEql0NX7ve-97" target="4QteENgU0oDEql0NX7ve-105" edge="1">
          <mxGeometry width="50" height="50" relative="1" as="geometry">
            <mxPoint x="810" y="100" as="sourcePoint" />
            <mxPoint x="895" y="143" as="targetPoint" />
          </mxGeometry>
        </mxCell>
        <mxCell id="4QteENgU0oDEql0NX7ve-110" value="1" style="text;html=1;strokeColor=none;fillColor=none;align=center;verticalAlign=middle;whiteSpace=wrap;rounded=0;labelBackgroundColor=default;fontSize=17;" parent="1" vertex="1">
          <mxGeometry x="642" y="385" width="60" height="30" as="geometry" />
        </mxCell>
        <mxCell id="4QteENgU0oDEql0NX7ve-113" value="1" style="text;html=1;strokeColor=none;fillColor=none;align=center;verticalAlign=middle;whiteSpace=wrap;rounded=0;labelBackgroundColor=default;fontSize=17;" parent="1" vertex="1">
          <mxGeometry x="799" y="380" width="60" height="30" as="geometry" />
        </mxCell>
        <mxCell id="4QteENgU0oDEql0NX7ve-114" value="1" style="text;html=1;strokeColor=none;fillColor=none;align=center;verticalAlign=middle;whiteSpace=wrap;rounded=0;rotation=75;labelBackgroundColor=default;fontSize=17;" parent="1" vertex="1">
          <mxGeometry x="700" y="440" width="60" height="30" as="geometry" />
        </mxCell>
        <mxCell id="4QteENgU0oDEql0NX7ve-116" value="1" style="text;html=1;strokeColor=none;fillColor=none;align=center;verticalAlign=middle;whiteSpace=wrap;rounded=0;rotation=3;labelBackgroundColor=default;fontSize=24;" parent="1" vertex="1">
          <mxGeometry x="230" y="355.5" width="80" height="43" as="geometry" />
        </mxCell>
        <mxCell id="4QteENgU0oDEql0NX7ve-121" value="*" style="text;html=1;strokeColor=none;fillColor=none;align=center;verticalAlign=middle;whiteSpace=wrap;rounded=0;rotation=3;labelBackgroundColor=default;fontSize=17;" parent="1" vertex="1">
          <mxGeometry x="1190" y="380" width="80" height="43" as="geometry" />
        </mxCell>
        <mxCell id="QHSl8As6yJZYup_IIt6X-1" value="DOB" style="ellipse;whiteSpace=wrap;html=1;labelBackgroundColor=default;fontSize=17;" vertex="1" parent="1">
          <mxGeometry x="970" y="510" width="120" height="50" as="geometry" />
        </mxCell>
        <mxCell id="QHSl8As6yJZYup_IIt6X-2" value="Address" style="ellipse;whiteSpace=wrap;html=1;labelBackgroundColor=default;fontSize=17;" vertex="1" parent="1">
          <mxGeometry x="522" y="590" width="120" height="50" as="geometry" />
        </mxCell>
        <mxCell id="QHSl8As6yJZYup_IIt6X-3" value="Role" style="ellipse;whiteSpace=wrap;html=1;labelBackgroundColor=default;fontSize=17;" vertex="1" parent="1">
          <mxGeometry x="440" y="450" width="120" height="50" as="geometry" />
        </mxCell>
        <mxCell id="QHSl8As6yJZYup_IIt6X-4" value="&lt;u style=&quot;font-size: 17px;&quot;&gt;User_Name&lt;/u&gt;" style="ellipse;whiteSpace=wrap;html=1;labelBackgroundColor=default;fontSize=17;" vertex="1" parent="1">
          <mxGeometry x="1340" y="585" width="120" height="50" as="geometry" />
        </mxCell>
        <mxCell id="QHSl8As6yJZYup_IIt6X-5" value="1" style="text;html=1;strokeColor=none;fillColor=none;align=center;verticalAlign=middle;whiteSpace=wrap;rounded=0;labelBackgroundColor=default;fontSize=17;" vertex="1" parent="1">
          <mxGeometry x="750" y="90" width="60" height="30" as="geometry" />
        </mxCell>
        <mxCell id="QHSl8As6yJZYup_IIt6X-6" value="M" style="text;html=1;strokeColor=none;fillColor=none;align=center;verticalAlign=middle;whiteSpace=wrap;rounded=0;labelBackgroundColor=default;fontSize=17;" vertex="1" parent="1">
          <mxGeometry x="740" y="350" width="60" height="30" as="geometry" />
        </mxCell>
        <mxCell id="QHSl8As6yJZYup_IIt6X-7" value="M" style="text;html=1;strokeColor=none;fillColor=none;align=center;verticalAlign=middle;whiteSpace=wrap;rounded=0;rotation=75;labelBackgroundColor=default;fontSize=17;" vertex="1" parent="1">
          <mxGeometry x="800" y="820" width="60" height="30" as="geometry" />
        </mxCell>
        <mxCell id="QHSl8As6yJZYup_IIt6X-8" value="" style="endArrow=none;html=1;rounded=0;entryX=0;entryY=0.5;entryDx=0;entryDy=0;exitX=1;exitY=0.25;exitDx=0;exitDy=0;" edge="1" parent="1" source="4QteENgU0oDEql0NX7ve-3" target="4QteENgU0oDEql0NX7ve-18">
          <mxGeometry width="50" height="50" relative="1" as="geometry">
            <mxPoint x="580" y="580" as="sourcePoint" />
            <mxPoint x="630" y="530" as="targetPoint" />
            <Array as="points" />
          </mxGeometry>
        </mxCell>
        <mxCell id="QHSl8As6yJZYup_IIt6X-10" value="" style="endArrow=none;html=1;rounded=0;entryX=0.25;entryY=1;entryDx=0;entryDy=0;exitX=1;exitY=0.5;exitDx=0;exitDy=0;" edge="1" parent="1" source="QHSl8As6yJZYup_IIt6X-2" target="4QteENgU0oDEql0NX7ve-114">
          <mxGeometry width="50" height="50" relative="1" as="geometry">
            <mxPoint x="580" y="580" as="sourcePoint" />
            <mxPoint x="630" y="530" as="targetPoint" />
          </mxGeometry>
        </mxCell>
        <mxCell id="QHSl8As6yJZYup_IIt6X-11" value="" style="endArrow=none;html=1;rounded=0;entryX=1;entryY=1;entryDx=0;entryDy=0;" edge="1" parent="1" target="4QteENgU0oDEql0NX7ve-24">
          <mxGeometry width="50" height="50" relative="1" as="geometry">
            <mxPoint x="960" y="520" as="sourcePoint" />
            <mxPoint x="630" y="530" as="targetPoint" />
          </mxGeometry>
        </mxCell>
      </root>
    </mxGraphModel>
  </diagram>
</mxfile>
